HIERARCHY
ROOT Hips
{
	OFFSET 49.562000 -13.148416 94.074501
	CHANNELS 6 Xposition Yposition Zposition Xrotation Yrotation Zrotation
	JOINT spine
	{
		OFFSET 0.000000 -0.448574 7.800591
		CHANNELS 3 Xrotation Yrotation Zrotation
		JOINT spine1
		{
			OFFSET 0.000000 -0.000002 10.136398
			CHANNELS 3 Xrotation Yrotation Zrotation
			JOINT spine2
			{
				OFFSET 0.000000 -0.000002 9.712509
				CHANNELS 3 Xrotation Yrotation Zrotation
				JOINT Neck
				{
					OFFSET 0.000000 -1.188873 24.936096
					CHANNELS 3 Xrotation Yrotation Zrotation
					JOINT Head
					{
						OFFSET 0.000000 -0.000001 7.533844
						CHANNELS 3 Xrotation Yrotation Zrotation
						End Site
						{
							OFFSET 0.000000 6.014017 18.236099
						}
					}
				}
				JOINT RightShoulder
				{
					OFFSET -4.089649 0.569455 10.488800
					CHANNELS 3 Xrotation Yrotation Zrotation
					JOINT RightArm
					{
						OFFSET 0.000000 -0.000002 13.757004
						CHANNELS 3 Xrotation Yrotation Zrotation
						JOINT RightArmRoll
						{
							OFFSET 0.000000 -0.000001 6.944778
							CHANNELS 3 Xrotation Yrotation Zrotation
							JOINT RightForeArm
							{
								OFFSET 0.000000 -0.000004 20.227692
								CHANNELS 3 Xrotation Yrotation Zrotation
								JOINT RightForeArmRoll
								{
									OFFSET 0.000000 -0.000001 7.793121
									CHANNELS 3 Xrotation Yrotation Zrotation
									JOINT RightHand
									{
										OFFSET 0.000000 -0.000003 15.639099
										CHANNELS 3 Xrotation Yrotation Zrotation
										End Site
										{
											OFFSET 0.000000 0.000000 0.100006
										}
									}
								}
							}
						}
					}
				}
				JOINT LeftShoulder
				{
					OFFSET 4.089649 0.569455 10.488800
					CHANNELS 3 Xrotation Yrotation Zrotation
					JOINT LeftArm
					{
						OFFSET 0.000000 -0.000002 13.757004
						CHANNELS 3 Xrotation Yrotation Zrotation
						JOINT LeftArmRoll
						{
							OFFSET 0.000000 -0.000001 6.944778
							CHANNELS 3 Xrotation Yrotation Zrotation
							JOINT LeftForeArm
							{
								OFFSET 0.000000 -0.000004 20.227692
								CHANNELS 3 Xrotation Yrotation Zrotation
								JOINT LeftForeArmRoll
								{
									OFFSET 0.000000 -0.000001 7.793121
									CHANNELS 3 Xrotation Yrotation Zrotation
									JOINT LeftHand
									{
										OFFSET 0.000000 -0.000003 15.639099
										CHANNELS 3 Xrotation Yrotation Zrotation
										End Site
										{
											OFFSET 0.000000 0.000000 0.100006
										}
									}
								}
							}
						}
					}
				}
			}
		}
	}
	JOINT RightUpLeg
	{
		OFFSET -6.914158 1.063581 -1.267883
		CHANNELS 3 Xrotation Yrotation Zrotation
		JOINT RightUpLegRoll
		{
			OFFSET 0.000000 -0.000003 18.337799
			CHANNELS 3 Xrotation Yrotation Zrotation
			JOINT RightLeg
			{
				OFFSET 0.000000 0.000004 -22.708504
				CHANNELS 3 Xrotation Yrotation Zrotation
				JOINT RightLegRoll
				{
					OFFSET 0.000000 -0.000004 22.782799
					CHANNELS 3 Xrotation Yrotation Zrotation
					JOINT RightFoot
					{
						OFFSET 0.000000 -0.000003 18.962898
						CHANNELS 3 Xrotation Yrotation Zrotation
						JOINT RightToeBase
						{
							OFFSET 0.000000 -0.000003 15.852005
							CHANNELS 3 Xrotation Yrotation Zrotation
							End Site
							{
								OFFSET 0.006718 0.884891 7.677017
							}
						}
					}
				}
			}
		}
	}
	JOINT LeftUpLeg
	{
		OFFSET 6.914158 1.063581 -1.267883
		CHANNELS 3 Xrotation Yrotation Zrotation
		JOINT LeftUpLegRoll
		{
			OFFSET 0.000000 -0.000003 18.337898
			CHANNELS 3 Xrotation Yrotation Zrotation
			JOINT LeftLeg
			{
				OFFSET 0.000000 -0.000004 22.708405
				CHANNELS 3 Xrotation Yrotation Zrotation
				JOINT LeftLegRoll
				{
					OFFSET 0.000000 -0.000004 22.993393
					CHANNELS 3 Xrotation Yrotation Zrotation
					JOINT LeftFoot
					{
						OFFSET 0.000000 -0.000003 18.752197
						CHANNELS 3 Xrotation Yrotation Zrotation
						JOINT LeftToeBase
						{
							OFFSET 0.000000 -0.000003 15.852005
							CHANNELS 3 Xrotation Yrotation Zrotation
							End Site
							{
								OFFSET -0.030113 0.884892 7.677017
							}
						}
					}
				}
			}
		}
	}
}
MOTION
Frames: 7
Frame Time: 0.041667
49.574100 -14.794214 94.160408 -8.030506 -0.876226 3.218964 -1.412101 0.610326 0.252614 1.181866 1.238347 0.506874 2.827076 1.244324 0.492001 13.776177 -3.616782 -2.942837 -9.230107 -15.484807 -2.480526 -15.157470 -26.645828 -16.908314 55.411556 -8.739813 57.253945 -0.000000 0.000006 -0.000000 87.601431 1.380791 -3.232695 -0.000006 -0.000000 -3.006558 -5.000256 -7.998788 0.000170 -1.649079 66.992763 2.846535 -4.071689 103.606074 -9.480081 0.000000 -0.000001 0.000002 19.031496 5.479566 0.347490 0.000005 -0.000008 2.999999 -5.000216 7.999253 -0.000091 5.640404 -178.620703 0.594494 -179.999991 0.000005 -1.162002 169.043057 -1.273358 -0.682494 -0.000003 0.000000 0.253337 72.913813 6.601207 2.671309 25.458781 -7.355625 0.002810 5.185580 179.989049 5.459545 -0.000005 -0.000004 -1.401330 -10.980621 5.916741 0.738244 -0.000003 0.000001 -0.166691 72.824324 -7.526082 -0.019579 25.456959 7.355616 -0.000001 
49.573601 -14.788014 94.157700 -8.017822 -0.870284 3.217459 -1.412443 0.609531 0.253610 1.181926 1.237017 0.507921 2.827135 1.243016 0.493062 13.700534 -3.604838 -2.942219 -9.172608 -15.481075 -2.470608 -15.165072 -26.667721 -16.920383 55.379491 -8.723329 57.820215 -0.000002 0.000003 -0.000002 87.091899 1.250937 -3.035345 -0.000001 -0.000002 -3.006552 -5.000254 -7.998783 0.000168 -1.686029 66.970469 2.885767 -4.087956 103.635403 -9.440460 0.000001 -0.000001 0.000002 19.044582 5.486204 0.346084 0.000004 -0.000007 3.000001 -5.000212 7.999252 -0.000092 5.630153 -178.628640 0.585701 -179.999991 0.000005 -1.162002 169.054763 -1.270471 -0.682677 -0.000002 0.000000 0.253183 72.905016 6.601259 2.671636 25.458775 -7.355624 0.002810 5.164430 179.984050 5.458830 -0.000005 -0.000004 -1.401460 -10.989930 5.914659 0.738855 -0.000002 0.000001 -0.166683 72.824747 -7.525275 -0.022229 25.456959 7.355615 -0.000002 
49.574001 -14.811516 94.158005 -8.004960 -0.864535 3.216516 -1.412750 0.608835 0.254544 1.181966 1.235797 0.508918 2.827185 1.241807 0.494075 13.625511 -3.593831 -2.941576 -9.115910 -15.475902 -2.460816 -15.173195 -26.689266 -16.933062 55.342871 -8.709048 58.375632 -0.000002 0.000004 -0.000000 86.591458 1.122830 -2.845186 -0.000005 -0.000001 -3.006556 -5.000252 -7.998783 0.000167 -1.721310 66.948674 2.923179 -4.102285 103.662703 -9.403490 0.000000 -0.000001 0.000003 19.057363 5.492785 0.344714 0.000006 -0.000008 2.999999 -5.000214 7.999252 -0.000091 5.619555 -178.635579 0.577009 -179.999991 0.000005 -1.162998 169.065979 -1.268547 -0.682047 -0.000004 0.000000 0.253031 72.896539 6.601291 2.672138 25.458777 -7.355625 0.002810 5.142800 179.980088 5.458998 -0.000005 -0.000004 -1.401630 -10.999832 5.911998 0.739478 -0.000002 0.000001 -0.166706 72.825676 -7.524396 -0.025032 25.456959 7.355617 -0.000001 
49.572102 -14.799814 94.162697 -7.992094 -0.858989 3.216163 -1.412998 0.608246 0.255399 1.182055 1.234687 0.509859 2.827274 1.240708 0.495030 13.551507 -3.583875 -2.940928 -9.060480 -15.468978 -2.451213 -15.181642 -26.710682 -16.946340 55.302187 -8.697392 58.916993 -0.000003 0.000005 -0.000002 86.103571 0.997141 -2.663283 -0.000000 -0.000001 -3.006556 -5.000257 -7.998786 0.000166 -1.754486 66.927507 2.958298 -4.114487 103.688958 -9.369578 0.000000 -0.000001 0.000001 19.069939 5.499222 0.343384 0.000006 -0.000007 3.000001 -5.000215 7.999254 -0.000092 5.608694 -178.643516 0.568307 -179.999991 0.000005 -1.162998 169.076511 -1.265654 -0.682245 -0.000003 -0.000000 0.252879 72.888589 6.601290 2.672507 25.458779 -7.355624 0.002810 5.120794 179.976099 5.460148 -0.000005 -0.000004 -1.401840 -11.010320 5.908558 0.740086 -0.000003 0.000001 -0.166771 72.827275 -7.523516 -0.027692 25.456959 7.355617 -0.000001 
49.568604 -14.773819 94.160500 -7.979392 -0.853666 3.216443 -1.413153 0.607770 0.256161 1.182255 1.233687 0.510735 2.827472 1.239729 0.495917 13.479129 -3.575138 -2.940274 -9.006848 -15.460389 -2.441938 -15.190651 -26.732035 -16.960336 55.257552 -8.688937 59.441231 -0.000001 0.000005 -0.000002 85.631229 0.874749 -2.490473 -0.000003 0.000002 -3.006559 -5.000251 -7.998785 0.000171 -1.785145 66.907270 2.990670 -4.124911 103.713192 -9.338558 0.000000 -0.000001 0.000001 19.082109 5.505462 0.342126 0.000005 -0.000007 3.000000 -5.000215 7.999251 -0.000089 5.597662 -178.650455 0.559885 -179.999991 0.000005 -1.162999 169.086114 -1.262745 -0.681464 -0.000003 0.000000 0.252725 72.881076 6.601326 2.672856 25.458781 -7.355624 0.002810 5.098519 179.973108 5.462541 -0.000005 -0.000004 -1.402100 -11.021694 5.904188 0.740697 -0.000004 0.000001 -0.166891 72.829733 -7.522589 -0.030286 25.456959 7.355617 -0.000001 
49.566200 -14.775118 94.155998 -7.967009 -0.848575 3.217384 -1.413148 0.607413 0.256810 1.182633 1.232807 0.511539 2.827851 1.238860 0.496732 13.408672 -3.567731 -2.939648 -8.955489 -15.449709 -2.433041 -15.200207 -26.753217 -16.974994 55.209597 -8.684139 59.945346 -0.000001 0.000006 0.000002 85.177827 0.756470 -2.327608 0.000001 0.000001 -3.006556 -5.000257 -7.998786 0.000167 -1.812837 66.887844 3.019811 -4.133353 103.736380 -9.310741 0.000000 -0.000001 0.000000 19.093666 5.511409 0.340947 0.000003 -0.000007 3.000000 -5.000217 7.999251 -0.000091 5.586544 -178.657408 0.551736 -179.999991 0.000005 -1.162999 169.094624 -1.260822 -0.680899 -0.000003 -0.000000 0.252567 72.874205 6.601326 2.673261 25.458777 -7.355624 0.002810 5.076082 179.971113 5.466365 -0.000005 -0.000004 -1.402420 -11.034054 5.898697 0.741298 -0.000003 0.000001 -0.167078 72.833080 -7.521708 -0.032728 25.456957 7.355616 -0.000002 
49.552605 -14.757014 94.158195 -7.955112 -0.843734 3.219040 -1.412949 0.607183 0.257332 1.183264 1.232057 0.512262 2.828480 1.238110 0.497464 13.340444 -3.561809 -2.939095 -8.906925 -15.437020 -2.424660 -15.210100 -26.774371 -16.990370 55.158733 -8.683461 60.426424 -0.000001 0.000006 -0.000000 84.746419 0.643283 -2.175570 -0.000002 -0.000001 -3.006559 -5.000253 -7.998783 0.000169 -1.837161 66.869656 3.045264 -4.140169 103.757540 -9.285983 0.000000 -0.000001 0.000000 19.104509 5.517002 0.339888 0.000004 -0.000007 3.000001 -5.000215 7.999252 -0.000092 5.575435 -178.664348 0.543952 -179.999991 0.000005 -1.162999 169.102028 -1.257902 -0.681165 -0.000004 0.000000 0.252404 72.868099 6.601373 2.673428 25.458777 -7.355624 0.002809 5.053583 179.970130 5.471798 -0.000004 -0.000004 -1.402800 -11.047391 5.891931 0.741871 -0.000003 0.000001 -0.167344 72.837520 -7.520813 -0.034893 25.456953 7.355616 -0.000001 
